<svg clip-rule="evenodd" fill-rule="evenodd" height="512" image-rendering="optimizeQuality" shape-rendering="geometricPrecision" text-rendering="geometricPrecision" viewBox="0 0 1707 1707" width="512" xmlns="http://www.w3.org/2000/svg"><g id="Layer_x0020_1"><path d="m940 1183h-173c-22 0-40-18-40-40v-73h-74c-22 0-40-18-40-40v-173c0-22 18-40 40-40h74v-73c0-22 18-40 40-40h173c22 0 40 18 40 40v73h73c22 0 40 18 40 40v173c0 22-18 40-40 40h-73v73c0 22-18 40-40 40zm-87 524c-342 0-616-275-616-617 0-166 202-474 381-747 82-125 160-243 200-321 14-29 56-29 71 0 40 78 117 196 199 321 179 273 382 581 382 747 0 342-274 617-617 617zm0-1584c-148 254-536 771-536 967 0 296 240 537 536 537s537-241 537-537c0-195-388-712-537-967zm0 1400c-52 0-52-80 0-80 195 0 354-158 354-353 0-52 80-52 80 0 0 239-195 433-434 433zm-46-420h93v-73c0-22 18-40 40-40h73v-93h-73c-22 0-40-18-40-40v-73h-93v73c0 22-18 40-40 40h-74v93h74c22 0 40 18 40 40z"/></g></svg>