<svg viewBox="0 0 64 64" xmlns="http://www.w3.org/2000/svg"><g id="Layer_3" data-name="Layer 3"><g><g fill="none" stroke="#4c4c4c" stroke-miterlimit="10" stroke-width="2"><path d="m54 64v-4l1.16-16.23974a87.228 87.228 0 0 0 -1.47223-23.32153l-.35377-1.76888a20.73664 20.73664 0 0 0 -20.334-16.66985 20.73664 20.73664 0 0 0 -20.334 16.66985l-.35378 1.76888a87.228 87.228 0 0 0 -1.47222 23.32153l1.16 16.23974v4"/><path d="m25.99995 9.89354c-3.66582.9816-6.69121 2.78938-7.99995 5.42546v10.2768a6.4588 6.4588 0 0 0 5.55363 6.405 68.98072 68.98072 0 0 0 18.89273 0 6.4588 6.4588 0 0 0 5.55364-6.40503v-10.27656c-2.19322-4.41778-9.237-6.51558-16.02465-6.28347"/><path d="m24 56h18"/><path d="m24 50h18"/></g><circle cx="29" cy="9" fill="#4c4c4c" r="1"/></g></g></svg>