<svg id="Layer_1" viewBox="0 0 512 512" xmlns="http://www.w3.org/2000/svg" data-name="Layer 1"><path d="m504.384 366.262c-8.877-16.118-32.907-15.327-55.238-12.432-36.963 4.795-60.028 6.01-89.243-.076 30.559-54.294 56.709-105.375 78.117-152.627 5.48-12.469 6.319-25.449 2.303-35.614-3.041-7.697-8.708-13.5-16.386-16.783-.157-.067-.316-.128-.478-.184l-68.702-23.604s-5.049-1.735-5.049-1.735c-9.299-3.195-19.314-2.563-28.2 1.777-8.886 4.341-15.539 11.854-18.734 21.152-3.195 9.3-2.564 19.315 1.777 28.201s11.854 15.539 21.153 18.734l7.934 2.726c-17.045 32.042-42.661 78.127-71.893 123.832-10.784-5.302-20.848-11.109-31.257-18.036-11.37-7.567-18.488-18.196-21.156-31.591-5.063-25.42-9.365-48.326-13.104-69.768 47.837-6.687 84.775-47.866 84.775-97.515 0-54.298-44.175-98.472-98.473-98.472-48.32 0-88.623 34.984-96.911 80.954l-76.359 20.46c-1.889.506-3.48 1.779-4.388 3.511s-1.05 3.765-.393 5.606l48.358 135.324c1.886 5.277 3.704 10.267 5.445 15.047 12.305 33.776 20.434 56.09 22.093 95.478.709 16.846-1.971 32.023-4.563 46.701-1.72 9.741-3.467 19.679-4.25 30.145-.039.285-.059.575-.062.867-.499 7.184-.538 14.617.221 22.416 3.6 36.996 25.947 45.933 44.06 46.914 1.042.057 2.091.084 3.156.084 22.401 0 49.765-12.289 81.22-26.416 22.061-9.908 47.065-21.139 73.195-29.245 30.505-9.464 56.386-9.8 81.416-10.125 22.271-.289 45.3-.588 70.984-7.304 14.992-3.921 51.86-14.884 70.36-31.979 16.338-15.098 12.195-29.3 8.271-36.422zm-174.131-186.431c-5.763-1.98-10.423-6.114-13.123-11.64s-3.096-11.743-1.116-17.506 6.114-10.423 11.639-13.123c5.526-2.699 11.744-3.096 17.505-1.116l3.267 1.123c5.875 7.456 5.063 21.414.122 29.666-.081.135-.158.273-.229.414-2.226 4.362-4.936 9.62-8.07 15.615l-9.995-3.434zm-147.723-161.585c46.579 0 84.473 37.894 84.473 84.472s-37.894 84.473-84.473 84.473-84.473-37.894-84.473-84.473 37.895-84.472 84.473-84.472zm-111.093 242.11c-1.732-4.755-3.54-9.717-5.416-14.966l-45.803-128.172 63.875-17.116c-.023.869-.035 1.741-.035 2.616 0 54.182 43.987 98.28 98.126 98.468 3.711 21.359 7.977 44.148 12.989 69.384-16.431 37.3-50.484 64.346-101.32 80.491-2.582-36.242-11.034-59.466-22.415-90.706zm13.768 183.791c41.469-10.137 79.274-51.278 90.228-64.104 2.511-2.939 2.163-7.358-.777-9.869-2.94-2.512-7.359-2.163-9.869.777-9.83 11.509-42.724 47.436-78.323 58.344.837-6.491 1.97-12.94 3.135-19.534 2.447-13.856 4.959-28.142 4.883-44.228 50.692-15.38 86.523-40.927 106.812-76.096 4.8 9.523 11.959 17.501 21.437 23.809 10.452 6.956 20.583 12.833 31.361 18.208-6.248 9.54-12.635 19.008-19.118 28.271-59.333 84.789-108.43 126.983-142.258 122.365-3.819-5.476-6.115-12.967-7.062-22.69-.51-5.24-.618-10.297-.45-15.253zm184-5.426c-4.913 1.524-9.774 3.152-14.577 4.853 11.941-16.994 22.328-32.317 30.985-45.714 2.098-3.247 1.167-7.58-2.081-9.678-3.245-2.097-7.579-1.167-9.678 2.08-11.367 17.592-25.773 38.573-42.82 62.366-12.856 5.271-25.129 10.78-36.612 15.937-31.286 14.053-58.293 26.186-77.882 25.125-.293-.016-.578-.041-.867-.062 15.673-4.685 32.79-15.25 51.182-31.631 24.016-21.388 50.794-53.098 79.589-94.247 51.465-73.545 96.963-159.697 114.241-193.539 4.914-8.342 7.148-20.042 5.167-30.657l52.796 18.14c4.11 1.817 7.021 4.831 8.653 8.961 2.614 6.615 1.829 15.899-2.067 24.765-32.051 70.741-74.909 150.288-127.394 236.466-9.109 1.541-18.608 3.722-28.637 6.834zm217.406-46.318c-16.632 15.369-53.497 25.865-64.4 28.716-24.032 6.284-45.207 6.56-67.624 6.851-12.605.163-25.42.333-38.968 1.604 12.959-21.449 25.318-42.484 37.057-63.071 33.124 7.508 58.675 6.347 98.27 1.212 8.83-1.146 35.703-4.63 41.176 5.303 2.429 4.41 3.998 10.598-5.512 19.386zm-358.808-264.667h29.709v29.71c0 3.866 3.134 7 7 7h36.035c3.866 0 7-3.134 7-7v-29.71h29.71c3.866 0 7-3.134 7-7v-36.035c0-3.866-3.134-7-7-7h-29.71v-29.71c0-3.866-3.134-7-7-7h-36.035c-3.866 0-7 3.134-7 7v29.71h-29.709c-3.866 0-7 3.134-7 7v36.035c0 3.866 3.134 7 7 7zm7-36.035h29.709c3.866 0 7-3.134 7-7v-29.71h22.035v29.71c0 3.866 3.134 7 7 7h29.71v22.035h-29.71c-3.866 0-7 3.134-7 7v29.71h-22.035v-29.71c0-3.866-3.134-7-7-7h-29.709z"/></svg>