<svg clip-rule="evenodd" fill-rule="evenodd" height="512" image-rendering="optimizeQuality" shape-rendering="geometricPrecision" text-rendering="geometricPrecision" viewBox="0 0 7111 7111" width="512" xmlns="http://www.w3.org/2000/svg"><g id="Layer_x0020_1"><path d="m3659 2253h-206c-182 0-329-148-329-329v-246c0-46 37-83 83-83s83 37 83 83v246c0 89 73 162 163 162h206c90 0 163-73 163-162v-246c0-46 37-83 83-83s84 37 84 83v246c0 181-148 329-330 329z"/><path d="m3659 3040h-206c-182 0-329-147-329-329v-246c0-46 37-83 83-83s83 37 83 83v246c0 90 73 163 163 163h206c90 0 163-73 163-163v-246c0-46 37-83 83-83s84 37 84 83v246c0 182-148 329-330 329z"/><path d="m3659 3795h-206c-182 0-329-147-329-329v-245c0-46 37-84 83-84s83 38 83 84v245c0 90 73 163 163 163h206c90 0 163-73 163-163v-245c0-46 37-84 83-84s84 38 84 84v245c0 182-148 329-330 329z"/><path d="m3659 4565h-206c-182 0-329-148-329-329v-246c0-46 37-83 83-83s83 37 83 83v246c0 89 73 162 163 162h206c90 0 163-73 163-162v-246c0-46 37-83 83-83s84 37 84 83v246c0 181-148 329-330 329z"/><path d="m3659 5334h-206c-182 0-329-147-329-329v-246c0-46 37-83 83-83s83 37 83 83v246c0 90 73 163 163 163h206c90 0 163-73 163-163v-246c0-46 37-83 83-83s84 37 84 83v246c0 182-148 329-330 329z"/><path d="m1640 5986c-6 0-13 0-19-2-45-10-73-55-62-100 5-25 149-625 496-749 144-52 297-17 455 103 948 726 1144 726 2093 0 157-120 310-155 455-103 347 124 490 724 496 749 10 45-18 90-62 100-45 11-90-17-101-62-34-149-172-553-390-630-89-32-186-6-297 79-503 384-818 580-1148 580-329 0-645-196-1148-580-111-85-208-111-297-79-218 78-355 481-390 630-9 38-43 64-81 64z"/><path d="m2169 2429c-103 0-209-23-314-70-167-74-208-183-214-261-11-160 113-349 378-576 185-157 368-273 376-278 39-24 90-13 115 26 24 39 13 91-26 115-269 169-690 509-677 702 2 17 6 71 116 120 352 157 628-43 768-282 23-40 74-53 114-30s53 74 30 114c-160 272-403 420-666 420z"/><path d="m1854 3224c-88 0-164-20-228-61-261-165-191-590-188-608 8-45 51-75 97-67 45 8 75 51 68 96-16 92-27 351 112 438 97 61 360 93 1033-383 37-27 89-18 116 19 26 38 17 90-20 117-424 300-751 449-990 449z"/><path d="m1683 3891c-147 0-255-36-324-108-172-180-24-485-18-498 21-41 71-58 112-37 41 20 58 70 38 111-2 4-102 215-12 309 63 64 315 166 1311-278 42-19 91 0 110 42s0 91-42 110c-523 233-912 349-1175 349z"/><path d="m1548 4714c-72 0-134-16-186-47-213-129-153-451-150-464 9-46 52-75 98-66 45 9 74 52 66 97-1 3-39 223 72 290 84 51 377 87 1302-651 36-29 88-23 117 13s23 88-13 117c-597 476-1027 711-1306 711z"/><path d="m4943 2429c-263 0-506-148-665-420-24-40-10-91 29-114 40-23 91-10 114 30 141 239 416 439 768 282 111-49 115-103 116-120 13-183-388-520-676-702-39-24-51-76-27-115 25-39 76-50 115-26 8 5 192 121 376 278 266 228 389 416 378 576-5 78-47 187-214 261-105 47-211 70-314 70z"/><path d="m5258 3224c-238 0-565-149-990-449-37-27-46-79-19-117 26-37 78-46 116-19 672 476 935 444 1032 383 139-87 129-346 113-438-8-45 22-89 68-96 45-8 88 22 96 67 3 18 74 443-187 608-65 41-141 61-229 61z"/><path d="m5429 3891c-263 0-652-116-1175-349-42-19-61-68-42-110s68-61 110-42c997 445 1249 342 1311 277 76-79 16-253-11-308-21-41-4-91 37-111 42-21 92-4 112 37 6 13 155 318-17 498-70 72-178 108-325 108z"/><path d="m5564 4714c-278 0-709-235-1305-711-36-29-42-81-14-117 29-36 82-42 118-13 925 738 1218 701 1301 651 112-67 73-288 73-290-9-45 21-89 66-97 45-9 89 20 97 65 3 14 63 336-149 465-52 31-115 47-187 47z"/><path d="m6034 6604h-1288c-46 0-83-37-83-83s37-83 83-83h1288c223 0 404-181 404-404v-1490c0-46 37-83 83-83s83 37 83 83v1490c0 315-255 570-570 570zm-3669 0h-1288c-315 0-570-255-570-570v-1490c0-46 37-83 83-83s83 37 83 83v1490c0 223 181 404 404 404h1288c46 0 83 37 83 83s-37 83-83 83zm4156-4358c-46 0-83-37-83-83v-1086c0-223-181-404-404-404h-1288c-46 0-83-37-83-83s37-83 83-83h1288c315 0 570 255 570 570v1086c0 46-37 83-83 83zm-5931 0c-46 0-83-37-83-83v-1086c0-315 255-570 570-570h1288c46 0 83 37 83 83s-37 83-83 83h-1288c-223 0-404 181-404 404v1086c0 46-37 83-83 83z"/><path d="m6458 7111h-5804c-361 0-654-293-654-653v-5804c0-361 293-654 654-654h5804c360 0 653 293 653 654v5804c0 360-293 653-653 653zm-5804-6944c-269 0-487 218-487 487v5804c0 268 218 486 487 486h5804c268 0 486-218 486-486v-5804c0-269-218-487-486-487z"/></g></svg>